<svg xmlns="http://www.w3.org/2000/svg" aria-hidden="true" style="position:absolute;width:0;height:0;overflow:hidden"><defs><symbol id="icon-logo" viewBox="0 0 128 32"><path fill="#f4e041" d="M35.42 27.82c.17 1.224-.293 2.392-1.132 3.125a3.092 3.092 0 0 1-1.017.598 3.126 3.126 0 0 1-1.251.171c-.011 0-.023 0-.034-.003a3.415 3.415 0 0 1-2.225-1.052c-.931-.989-.904-2.218-.893-2.475 0-.124.006-.244.02-.363H18.774c.014.119.02.24.02.363.011.257.038 1.486-.892 2.475a3.417 3.417 0 0 1-2.225 1.052c-.011.003-.023.003-.034.003a3.144 3.144 0 0 1-1.764-.407 3.147 3.147 0 0 1-.504-.361l-.001-.001c-.837-.734-1.3-1.901-1.13-3.125H8.601l.074-.271 1.36-5.006.297-.014 3.48-.154a.282.282 0 0 0 .271-.292.279.279 0 0 0-.296-.268l-3.597.16.494-1.824 3.107.255a.281.281 0 0 0 .282-.257.281.281 0 0 0-.258-.303l-2.98-.247.501-1.847.266.102 2.652 1.015a.28.28 0 1 0 .204-.523l-2.973-1.138L15.893.986l3.18 9.697c.748-.376 2.492-1.146 4.75-1.111h.02c2.258-.035 4.002.735 4.75 1.111l3.18-9.697 4.408 16.222-.266.101-2.707 1.037a.28.28 0 1 0 .204.523l2.918-1.117.501 1.847-2.98.247a.282.282 0 0 0-.259.303.283.283 0 0 0 .282.257h.024l3.084-.255.494 1.824-.296-.014-3.302-.146a.28.28 0 1 0-.025.56l3.779.168 1.36 5.006.074.271h-3.643z" style="fill:var(--color1, #f4e041)"/><path d="m39.431 28.1-.074-.269-.077-.282-1.357-4.994-.295-.013-.297-.014 1.361 5.01h-3.599l.044.319a3.25 3.25 0 0 1-.734 2.572 2.898 2.898 0 0 1-.75.625 2.797 2.797 0 0 1-1.345.384 3.097 3.097 0 0 1-.569-.038 3.109 3.109 0 0 1-1.772-.934c-.791-.841-.834-1.868-.816-2.283 0-.122.006-.23.017-.331l.037-.313h-10.75l.037.313c.011.101.018.209.018.342.017.404-.027 1.431-.817 2.272a3.11 3.11 0 0 1-2.051.966c-.096.006-.193.009-.289.006a2.864 2.864 0 0 1-.867-.161 2.69 2.69 0 0 1-.477-.222h-.001a2.439 2.439 0 0 1-.388-.271 2.967 2.967 0 0 1-.363-.355 3.257 3.257 0 0 1-.734-2.572l.044-.319H8.969l1.361-5.01-.297.014-.296.013L8.23 28.1h3.7c-.093 1.649.864 3.175 2.366 3.706 1.308.463 2.84.079 3.813-.957.936-.996.989-2.206.969-2.666l-.001-.083h9.509v.07c-.021.473.031 1.682.968 2.679A3.69 3.69 0 0 0 32.224 32c.387 0 .774-.063 1.143-.194 1.502-.53 2.459-2.057 2.366-3.706h3.7zm-28.749-7.95-.288-.024-.504 1.861.297-.013.296-.014.486-1.786-.288-.024zM31.796 0 31.5.899l-2.653 8.089-.426 1.301c-1.078-.502-2.676-1.031-4.58-.998h-.015c-1.91-.031-3.507.495-4.585.998l-.426-1.301L16.162.899 15.866 0l-4.648 17.105.266.103.266.101 4.167-15.338 2.357 7.191.63 1.919.295-.149c1.014-.511 2.645-1.117 4.622-1.08h.024c1.983-.034 3.602.57 4.617 1.08l.296.149.629-1.919c.785-2.397 1.571-4.793 2.359-7.191l4.167 15.338.266-.101.265-.103L31.796 0zM11.068 17.65l-.523 1.925.575.048.48-1.768-.533-.205zm25.525.001-.265.101-.266.102.48 1.768.288-.024.286-.022-.523-1.925zm.672 2.475-.574.048.486 1.786.296.014.296.013-.504-1.861z" opacity=".87" style="fill:var(--color2, #000)"/><path d="M26.076 18.399a.599.599 0 0 1-.602-.596v-3.614c0-.33.269-.596.602-.596s.602.267.602.596v3.614a.6.6 0 0 1-.602.596zM21.939 17.768a.601.601 0 0 1-.663-.53l-.293-2.728a.599.599 0 0 1 .535-.657.601.601 0 0 1 .663.53l.293 2.728a.598.598 0 0 1-.535.657zM14.615 18.709a.282.282 0 0 1-.366.16l-7.037-2.694c-.147-.056-.22-.219-.163-.363s.221-.216.367-.16l7.037 2.694a.28.28 0 0 1 .161.363zM14.068 20.149a.281.281 0 0 1-.282.257h-.024l-7.519-.623a.28.28 0 1 1 .048-.558l7.519.622a.281.281 0 0 1 .258.303zM14.079 22.083a.28.28 0 0 1-.271.292l-7.55.335a.28.28 0 0 1-.013-.561l7.538-.334a.278.278 0 0 1 .296.268zM40.445 16.175l-7.037 2.694a.285.285 0 0 1-.102.02.28.28 0 0 1-.102-.543l7.037-2.694a.285.285 0 0 1 .367.16.281.281 0 0 1-.163.363zM41.67 19.48a.282.282 0 0 1-.259.303l-7.543.623a.283.283 0 0 1-.282-.257.282.282 0 0 1 .259-.303l7.519-.622a.28.28 0 0 1 .306.255zM41.68 22.442a.283.283 0 0 1-.283.268h-.013l-7.537-.335a.28.28 0 1 1 .025-.56l7.537.334a.282.282 0 0 1 .271.293z" opacity=".87" style="fill:var(--color2, #000)"/><path fill="#fff" d="M31.903 29.021a4.125 4.125 0 0 1 .115 2.412l-.115-2.412z" style="fill:var(--color3, #fff)"/><path d="M32.019 31.713a.281.281 0 0 1-.275-.348 3.904 3.904 0 0 0-.109-2.253c-.051-.146.027-.306.176-.356s.309.027.36.174a4.442 4.442 0 0 1 .124 2.571.286.286 0 0 1-.275.212z" opacity=".87" style="fill:var(--color2, #000)"/><path fill="#fff" d="M33.75 28.91c.174.276.324.613.371.999.057.453-.046.848-.186 1.162l-.185-2.161z" style="fill:var(--color3, #fff)"/><path d="M33.935 31.35a.28.28 0 0 1-.26-.394c.15-.337.204-.678.163-1.015a2.185 2.185 0 0 0-.33-.885c-.082-.132-.041-.305.092-.386s.307-.041.39.091c.227.362.364.737.411 1.113.054.438-.016.878-.207 1.309a.283.283 0 0 1-.259.167z" opacity=".87" style="fill:var(--color2, #000)"/><path fill="#fff" d="M15.758 29.021a4.279 4.279 0 0 0-.232 1.116c-.036.507.028.947.117 1.296l.115-2.412z" style="fill:var(--color3, #fff)"/><path d="M15.639 31.714a.285.285 0 0 1-.275-.213 4.436 4.436 0 0 1 .124-2.571c.051-.146.213-.225.36-.174s.227.21.176.356a3.874 3.874 0 0 0-.109 2.252.281.281 0 0 1-.207.34.229.229 0 0 1-.068.01z" opacity=".87" style="fill:var(--color2, #000)"/><path fill="#fff" d="M13.91 28.91a2.431 2.431 0 0 0-.371.999c-.057.453.046.848.186 1.162l.185-2.161z" style="fill:var(--color3, #fff)"/><path d="M13.724 31.35a.283.283 0 0 1-.259-.167 2.44 2.44 0 0 1-.207-1.309c.047-.376.184-.749.411-1.113.082-.132.256-.173.39-.091s.174.254.092.386a2.185 2.185 0 0 0-.33.885c-.041.337.013.678.163 1.015a.278.278 0 0 1-.145.37.276.276 0 0 1-.115.024zM10.283 28.06H.301c-.166 0-.301-.108-.301-.239s.136-.239.301-.239h9.982c.166 0 .301.107.301.239s-.136.239-.301.239zM46.627 28.11h-9.385c-.156 0-.283-.126-.283-.281s.127-.281.283-.281h9.385c.156 0 .283.126.283.281s-.126.281-.283.281zM26.713 22.947c-.204.525-.676 1.093-1.275 1.179-.554.077-1.064-.216-1.431-.672a1.89 1.89 0 0 1-.136.296c-.092.163-.586.968-1.411.968h-.023c-.785-.014-1.466-.722-1.585-1.65a.281.281 0 0 1 .246-.313c.153-.02.298.09.316.243.091.716.596 1.152 1.032 1.159h.011c.52 0 .878-.61.918-.68a1.47 1.47 0 0 0 .156-.939c-.013-.043-.024-.087-.035-.13-.545.063-1.016-.126-1.102-.472-.098-.393.34-.839.979-.996.64-.157 1.238.034 1.336.427.082.324-.2.683-.659.888.014.052.027.114.038.181.229.755.816 1.197 1.269 1.135.351-.051.681-.453.825-.824.122-.314.105-.61.069-.803a.284.284 0 0 1 .558-.101c.048.264.071.668-.098 1.104zM53.916 22.878c-.484 0-.726-.133-.726-.4V11.49h-3.487c-.121 0-.212-.042-.273-.127s-.091-.224-.091-.418v-.291c0-.194.03-.334.091-.418s.151-.127.273-.127h8.517c.133 0 .224.042.272.127.061.085.091.224.091.418v.291c0 .194-.03.334-.091.418-.048.085-.139.127-.272.127h-3.432v10.988c0 .267-.242.4-.726.4h-.145zm7.352-.037c-.194 0-.333-.042-.418-.127s-.127-.224-.127-.418V10.653c0-.194.042-.334.127-.418s.224-.127.418-.127h6.338c.133 0 .224.042.272.127.06.085.091.224.091.418v.291c0 .194-.03.334-.091.418-.049.085-.139.127-.272.127h-5.284v4.148h4.74c.133 0 .224.042.272.127.061.085.091.224.091.418v.291c0 .194-.03.334-.091.418-.048.085-.139.127-.272.127h-4.74v4.439h5.303c.133 0 .224.042.272.127.061.085.091.224.091.418v.291c0 .194-.03.334-.091.418-.049.085-.139.127-.272.127h-6.356zm12.02.109c-.726 0-1.398-.085-2.016-.255s-1.084-.376-1.398-.619c-.23-.17-.345-.321-.345-.455 0-.145.079-.346.236-.6.169-.255.303-.382.4-.382.048 0 .175.061.381.182.375.206.775.382 1.199.528.436.145.95.218 1.544.218.702 0 1.271-.194 1.707-.582.448-.4.672-.922.672-1.565 0-.449-.121-.819-.363-1.11a2.545 2.545 0 0 0-.89-.71c-.339-.182-.835-.4-1.489-.655-.702-.279-1.259-.534-1.671-.764s-.763-.57-1.053-1.019c-.291-.461-.436-1.061-.436-1.801 0-.655.163-1.237.49-1.746.339-.509.811-.904 1.416-1.183.617-.291 1.326-.437 2.125-.437.411 0 .872.061 1.38.182.508.109.902.261 1.18.455.242.146.363.303.363.473 0 .133-.079.327-.236.582-.145.255-.26.382-.345.382a.686.686 0 0 1-.272-.091 4.181 4.181 0 0 1-.218-.127 4.04 4.04 0 0 0-1.889-.473c-.702 0-1.271.182-1.707.546-.424.364-.636.867-.636 1.51 0 .412.103.746.309 1.001.218.255.46.449.726.582.278.121.756.315 1.435.582.726.279 1.319.552 1.78.819.46.255.847.631 1.162 1.128.327.485.49 1.11.49 1.874 0 1.092-.363 1.953-1.09 2.583s-1.707.946-2.942.946zm9.588-.072c-.484 0-.726-.133-.726-.4V11.49h-3.487c-.121 0-.212-.042-.272-.127s-.091-.224-.091-.418v-.291c0-.194.03-.334.091-.418s.151-.127.272-.127h8.517c.133 0 .224.042.272.127.06.085.091.224.091.418v.291c0 .194-.03.334-.091.418-.049.085-.139.127-.272.127h-3.432v10.988c0 .267-.242.4-.726.4h-.145zm9.966 0c-.484 0-.726-.133-.726-.4V11.49h-3.487c-.121 0-.212-.042-.272-.127s-.091-.224-.091-.418v-.291c0-.194.03-.334.091-.418s.151-.127.272-.127h8.517c.133 0 .224.042.272.127.061.085.091.224.091.418v.291c0 .194-.03.334-.091.418-.048.085-.139.127-.272.127h-3.432v10.988c0 .267-.242.4-.726.4h-.145zm5.299 0c-.52 0-.781-.103-.781-.309a.86.86 0 0 1 .055-.255l4.304-11.952c.073-.194.315-.291.726-.291h.527c.436 0 .678.097.726.291l4.304 11.97a.61.61 0 0 1 .054.236c0 .206-.26.309-.781.309h-.145c-.424 0-.666-.097-.726-.291l-1.071-2.983h-5.339l-1.035 2.983c-.06.194-.303.291-.726.291h-.091zm6.701-4.658-1.907-5.421c-.061-.194-.133-.546-.218-1.055h-.036c-.097.485-.188.837-.272 1.055l-1.907 5.421h4.34zm7.868 4.73c-.726 0-1.398-.085-2.016-.255s-1.084-.376-1.398-.619c-.23-.17-.345-.321-.345-.455 0-.145.079-.346.236-.6.169-.255.303-.382.4-.382.048 0 .175.061.381.182.375.206.775.382 1.199.528.436.145.95.218 1.543.218.702 0 1.271-.194 1.707-.582.448-.4.672-.922.672-1.565 0-.449-.121-.819-.363-1.11a2.545 2.545 0 0 0-.89-.71c-.339-.182-.835-.4-1.489-.655-.702-.279-1.259-.534-1.671-.764s-.762-.57-1.053-1.019c-.291-.461-.436-1.061-.436-1.801 0-.655.163-1.237.49-1.746.339-.509.811-.904 1.416-1.183.617-.291 1.326-.437 2.125-.437.412 0 .872.061 1.38.182.508.109.902.261 1.18.455.242.146.363.303.363.473 0 .133-.079.327-.236.582-.145.255-.26.382-.345.382a.686.686 0 0 1-.272-.091 4.181 4.181 0 0 1-.218-.127 4.04 4.04 0 0 0-1.889-.473c-.702 0-1.271.182-1.707.546-.424.364-.636.867-.636 1.51 0 .412.103.746.309 1.001.218.255.46.449.726.582.278.121.757.315 1.435.582.726.279 1.32.552 1.78.819.46.255.847.631 1.162 1.128.327.485.49 1.11.49 1.874 0 1.092-.363 1.953-1.09 2.583s-1.707.946-2.942.946zm7.137-.072c-.484 0-.726-.133-.726-.4V10.471c0-.267.242-.4.726-.4h.145c.484 0 .726.133.726.4v5.567h.073l4.467-5.712c.133-.17.46-.255.981-.255h.182c.206 0 .363.024.471.073.11.036.164.091.164.164 0 .109-.06.23-.182.364l-4.539 5.676 5.502 5.985c.11.121.164.218.164.291 0 .097-.06.164-.181.2-.122.036-.327.055-.618.055h-.218a4.4 4.4 0 0 1-.635-.036.607.607 0 0 1-.364-.2l-5.193-5.858h-.073v5.694c0 .267-.242.4-.726.4h-.145z" opacity=".87" style="fill:var(--color2, #000)"/></symbol><symbol id="icon-checkbox" viewBox="0 0 32 32"><path fill="none" stroke="#00bdd3" stroke-width="1.6" d="M31.2 16c0 8.395-6.805 15.2-15.2 15.2S.8 24.395.8 16 7.605.8 16 .8 31.2 7.605 31.2 16z" style="stroke:var(--color1, #00bdd3)"/><path stroke-width="1.6" d="M23.2 16a7.2 7.2 0 1 1-14.401-.001A7.2 7.2 0 0 1 23.2 16z"/></symbol></defs></svg>